<svg width="17" height="14" viewBox="0 0 17 14" fill="none" xmlns="http://www.w3.org/2000/svg">
<path d="M16.6449 1.96345C16.0475 2.22817 15.4058 2.40703 14.7311 2.48787C15.4272 2.07133 15.948 1.41575 16.1963 0.643456C15.5423 1.03193 14.8265 1.30538 14.08 1.45191C13.5781 0.915944 12.9132 0.560698 12.1886 0.441325C11.4641 0.321951 10.7204 0.445129 10.073 0.791734C9.42562 1.13834 8.91079 1.68898 8.60843 2.35816C8.30606 3.02735 8.23309 3.77764 8.40084 4.49255C7.07561 4.42601 5.77918 4.08156 4.59569 3.48156C3.4122 2.88155 2.3681 2.0394 1.53114 1.00976C1.24496 1.50342 1.08041 2.07578 1.08041 2.68533C1.08009 3.23408 1.21522 3.77441 1.47382 4.2584C1.73241 4.74239 2.10647 5.15507 2.56281 5.45983C2.03358 5.44299 1.51603 5.29998 1.05322 5.04272V5.08565C1.05317 5.85528 1.31939 6.60123 1.80672 7.19692C2.29404 7.79261 2.97246 8.20136 3.72684 8.3538C3.23589 8.48667 2.72117 8.50624 2.22155 8.41103C2.43439 9.07326 2.84899 9.65235 3.4073 10.0672C3.96561 10.4821 4.63969 10.712 5.33516 10.7248C4.15456 11.6516 2.69652 12.1543 1.1956 12.1521C0.929726 12.1522 0.664078 12.1366 0.400024 12.1056C1.92355 13.0852 3.69703 13.605 5.5083 13.603C11.6397 13.603 14.9915 8.52479 14.9915 4.12051C14.9915 3.97743 14.9879 3.83291 14.9815 3.68982C15.6335 3.21832 16.1963 2.63446 16.6435 1.9656L16.6449 1.96345Z" fill="#2CDA9D"/>
</svg>
